<?xml version="1.0" encoding="UTF-8" standalone="no"?>
<!-- Generator: Adobe Illustrator 21.0.0, SVG Export Plug-In . SVG Version: 6.00 Build 0)  -->

<svg
   version="1.1"
   id="Layer_1"
   x="0px"
   y="0px"
   viewBox="0 0 258.2 258.2"
   style="enable-background:new 0 0 258.2 258.2;"
   xml:space="preserve"
   sodipodi:docname="icon.svg"
   inkscape:version="1.3 (0e150ed, 2023-07-21)"
   xmlns:inkscape="http://www.inkscape.org/namespaces/inkscape"
   xmlns:sodipodi="http://sodipodi.sourceforge.net/DTD/sodipodi-0.dtd"
   xmlns="http://www.w3.org/2000/svg"
   xmlns:svg="http://www.w3.org/2000/svg"><defs
   id="defs16" /><sodipodi:namedview
   id="namedview16"
   pagecolor="#ffffff"
   bordercolor="#000000"
   borderopacity="0.25"
   inkscape:showpageshadow="2"
   inkscape:pageopacity="0.0"
   inkscape:pagecheckerboard="0"
   inkscape:deskcolor="#d1d1d1"
   showgrid="false"
   inkscape:zoom="2.660728"
   inkscape:cx="138.12009"
   inkscape:cy="132.1067"
   inkscape:window-width="1440"
   inkscape:window-height="900"
   inkscape:window-x="0"
   inkscape:window-y="0"
   inkscape:window-maximized="0"
   inkscape:current-layer="g16" />&#10;<g
   id="g16">&#10;	<path
   d="M249.7,6.4H8.5c-1.2,0-2.1,0.9-2.1,2.1v241.1c0,1.2,0.9,2.1,2.1,2.1h241.1c1.2,0,2.1-0.9,2.1-2.1V8.5   C251.8,7.4,250.8,6.4,249.7,6.4z M250.4,249.7c0,0.4-0.3,0.7-0.7,0.7H8.5c-0.4,0-0.7-0.3-0.7-0.7V8.5c0-0.4,0.3-0.7,0.7-0.7h241.1   c0.4,0,0.7,0.3,0.7,0.7V249.7z"
   id="path1" />&#10;	<path
   d="M254,0H4.3C1.9,0,0,1.9,0,4.3V254c0,2.3,1.9,4.3,4.3,4.3H254c2.3,0,4.3-1.9,4.3-4.3V4.3C258.2,1.9,256.3,0,254,0z    M255.4,254c0,0.8-0.6,1.4-1.4,1.4H4.3c-0.8,0-1.4-0.6-1.4-1.4V4.3c0-0.8,0.6-1.4,1.4-1.4H254c0.8,0,1.4,0.6,1.4,1.4V254z"
   id="path2" />&#10;	<path
   d="m 216.75037,106.57875 -1.6,2.3 c 1,0.7 2,1.5 2.8,2.4 3.8,3.8 6.1,9 6.1,14.7 0,5.7 -2.3,10.9 -6.1,14.7 -3.8,3.8 -9,6.1 -14.7,6.1 -5.7,0 -10.9,-2.3 -14.7,-6.1 -3.8,-3.8 -6.1,-9 -6.1,-14.7 0,-5.7 2.3,-10.9 6.1,-14.7 0.8,-0.8 1.6,-1.5 2.5,-2.1 l -1.6,-2.4 c -1.1,0.8 -2,1.6 -3,2.5 -4.3,4.3 -6.9,10.2 -6.9,16.7 0,6.5 2.6,12.4 6.9,16.7 4.3,4.3 10.2,6.9 16.7,6.9 6.5,0 12.4,-2.6 16.7,-6.9 4.3,-4.3 6.9,-10.2 6.9,-16.7 0,-6.5 -2.6,-12.4 -6.9,-16.7 -0.9,-1 -2,-1.9 -3.1,-2.7 z"
   id="path3" />&#10;	<circle
   cx="211.45038"
   cy="105.10291"
   r="3.4000001"
   id="circle3" />&#10;	<circle
   cx="194.75037"
   cy="105.00291"
   r="3.4000001"
   id="circle4" />&#10;	&#10;	&#10;	&#10;	<circle
   cx="203.25037"
   cy="103.40291"
   r="3.4000001"
   id="circle5" />&#10;	&#10;	&#10;	<path
   d="m 72.321542,102.4246 -0.5,2.8 c 3.8,0.9 7.1,2.9 9.8,5.5 3.8,3.8 6.1,9 6.1,14.7 0,5.7 -2.3,10.9 -6.1,14.7 -3.8,3.8 -9,6.1 -14.7,6.1 -5.7,0 -10.9,-2.3 -14.7,-6.1 -3.8,-3.8 -6.1,-9 -6.1,-14.7 0,-5.7 2.3,-10.9 6.1,-14.7 2.6,-2.6 6,-4.6 9.7,-5.5 l -0.4,-2.8 c -4.4,1 -8.2,3.2 -11.3,6.3 -4.4,4.2 -7,10.1 -7,16.7 0,6.5 2.6,12.4 6.9,16.7 4.3,4.3 10.2,6.9 16.7,6.9 6.5,0 12.4,-2.6 16.7,-6.9 4.3,-4.3 6.9,-10.2 6.9,-16.7 0,-6.5 -2.6,-12.4 -6.9,-16.7 -3,-3.1 -6.9,-5.3 -11.2,-6.3 z"
   id="path7" />&#10;	<circle
   cx="66.821541"
   cy="103.1246"
   r="3.4000001"
   id="circle7" />&#10;	<path
   d="m 136.19549,149.77627 c 6.5,0 12.4,-2.6 16.7,-6.9 4.3,-4.3 6.9,-10.2 6.9,-16.7 0,-6.5 -2.6,-12.4 -6.9,-16.7 -2,-2 -4.3,-3.6 -6.8,-4.8 l -1.1,2.6 c 2.2,1 4.2,2.5 6,4.2 3.8,3.8 6.1,9 6.1,14.7 0,5.7 -2.3,10.9 -6.1,14.7 -3.8,3.8 -9,6.1 -14.7,6.1 -5.7,0 -10.9,-2.3 -14.7,-6.1 -3.8,-3.8 -6.1,-9 -6.1,-14.7 0,-5.7 2.3,-10.9 6.1,-14.7 1.7,-1.7 3.6,-3 5.8,-4.1 l -1.1,-2.6 c -2.5,1.2 -4.8,2.8 -6.7,4.7 -4.3,4.3 -6.9,10.2 -6.9,16.7 0,6.5 2.6,12.4 6.9,16.7 4.1,4.2 10,6.9 16.6,6.9 z"
   id="path8" />&#10;	<circle
   cx="140.69548"
   cy="104.47627"
   r="3.4000001"
   id="circle8" />&#10;	<circle
   cx="131.49548"
   cy="104.37627"
   r="3.4000001"
   id="circle9" />&#10;	&#10;	&#10;	&#10;	&#10;	&#10;	&#10;	&#10;	&#10;</g>&#10;</svg>
