<?xml version="1.0" standalone="yes"?>
<!DOCTYPE svg PUBLIC "-//W3C//DTD SVG 20010904//EN" "http://www.w3.org/TR/2001/REC-SVG-20010904/DTD/svg10.dtd">
<svg xmlns="http://www.w3.org/2000/svg" version="1.0" width="198.000000pt" height="145.000000pt" viewBox="0 0 198.000000 145.000000" preserveAspectRatio="xMidYMid meet" style="zoom: 1;"><g transform="translate(0.000000,145.000000) scale(0.100000,-0.100000)" fill="#000000" stroke="none" visibility="visible"><path d="M0,725 l0,-725 l990,0 l990,0 l0,725 l0,725 l-990,0 l-990,0 l0,-725 m1970,708 c0,-5 -147,-7 -327,-5 c-358,4 -656,-5 -647,-19 c5,-9 -40,-64 -93,-113 c-18,-16 -33,-36 -33,-43 c0,-7 -4,-13 -10,-13 c-5,0 -10,-5 -10,-11 c0,-6 -12,-23 -27,-39 c-72,-72 -113,-119 -113,-128 c0,-6 -10,-22 -22,-35 c-13,-13 -42,-44 -64,-68 c-23,-24 -58,-57 -78,-73 c-20,-16 -36,-38 -36,-48 c0,-10 -4,-18 -8,-18 c-14,0 -115,-104 -145,-148 c-15,-23 -33,-42 -41,-42 c-8,0 -17,-11 -20,-25 c-4,-14 -13,-25 -22,-25 c-8,0 -18,-8 -21,-17 c-4,-10 -16,-26 -28,-35 c-11,-10 -17,-17 -13,-18 c4,0 -22,-30 -57,-66 c-36,-37 -65,-73 -65,-80 c0,-8 -4,-14 -10,-14 c-5,0 -20,-11 -34,-25 c-23,-23 -26,-35 -29,-118 c-1,-50 -4,206 -5,571 l-2,662 l980,0 c539,0 980,-3 980,-7 m-975,-388 c-5,-2 -23,-6 -39,-10 c-45,-10 -26,-13 31,-6 c29,4 50,4 47,-1 c-3,-4 3,-8 13,-8 c10,0 37,-9 61,-20 c23,-10 44,-20 47,-20 c18,-3 70,-67 99,-123 c46,-87 50,-172 12,-254 c-72,-155 -252,-221 -401,-149 c-71,35 -125,91 -150,156 c-11,27 -22,50 -26,50 c-3,0 -4,24 -2,53 c2,40 1,47 -7,32 c-8,-15 -9,-8 -4,30 c14,127 109,235 231,264 c35,8 110,13 88,6 "></path><path d="M844,994 c-18,-14 -18,-14 6,-3 c31,14 36,19 24,19 c-6,0 -19,-7 -30,-16 "></path><path d="M943 999 c-126 -23 -217 -129 -217 -254 -1 -92 18 -139 78 -201 29 -30 46 -52 38 -49 -12 4 -13 3 -2 -10 16 -20 103 -45 156 -45 85 0 183 52 229 121 14 22 33 69 42 105 15 60 15 69 -2 129 -39 145 -174 230 -322 204z"></path><path d="M799 963 c-13 -16 -12 -17 4 -4 9 7 17 15 17 17 0 8 -8 3 -21 -13z"></path></g><circle stroke="#000000" id="circle1" stroke-width="3px" cy="917.485657px" fill="#ffffff" r="677.994263px" cx="809.995117px" transform=""></circle><circle stroke="#000000" id="circle2" stroke-width="3px" cy="392.471497px" fill="#ffffff" r="265.718079px" cx="1582.515991px" transform=""></circle><circle stroke="white" cx="97.499962px" id="circle3" stroke-width="6px" cy="71.25193px" fill="black" r="29.250778px" transform=""></circle></svg>