<?xml version="1.0" standalone="yes"?>
<!DOCTYPE svg PUBLIC "-//W3C//DTD SVG 20010904//EN" "http://www.w3.org/TR/2001/REC-SVG-20010904/DTD/svg10.dtd">
<svg xmlns="http://www.w3.org/2000/svg" version="1.0" width="198.000000pt" height="145.000000pt" viewBox="0 0 198.000000 145.000000" preserveAspectRatio="xMidYMid meet" style="zoom: 1;"><g transform="translate(0.000000,145.000000) scale(0.100000,-0.100000)" fill="#000000" stroke="none"><path d="M0,725 l0,-725 l990,0 l990,0 l0,725 l0,725 l-990,0 l-990,0 l0,-725 m1970,708 c0,-5 -147,-7 -327,-5 c-358,4 -656,-5 -647,-19 c2,-5 -10,-25 -28,-45 c-18,-20 -37,-42 -41,-50 c-4,-8 -15,-14 -22,-14 c-8,0 -15,-7 -15,-16 c0,-8 -15,-30 -32,-47 c-18,-18 -31,-35 -30,-39 c1,-5 -2,-8 -6,-8 c-10,0 -82,-68 -82,-77 c0,-7 -9,-17 -67,-77 c-13,-13 -23,-28 -23,-33 c0,-6 -9,-17 -20,-24 c-13,-9 -21,-27 -23,-46 c-2,-27 -5,-32 -22,-27 c-18,4 -18,4 -2,-6 c9,-6 26,-9 36,-5 c11,3 22,1 26,-5 c3,-5 15,-10 25,-10 c27,0 86,-62 100,-106 c17,-50 0,-103 -45,-143 c-29,-25 -44,-31 -84,-31 c-40,0 -56,6 -95,35 c-25,20 -46,42 -46,50 c0,7 -5,15 -11,17 c-6,2 -12,15 -12,30 c-1,18 -7,26 -19,25 c-9,-1 -14,-5 -11,-10 c3,-5 0,-8 -8,-5 c-17,6 -44,-17 -80,-69 c-17,-24 -36,-43 -43,-43 c-8,0 -17,-11 -20,-25 c-4,-14 -13,-25 -22,-25 c-8,0 -18,-8 -21,-17 c-4,-10 -16,-26 -28,-35 c-11,-10 -17,-17 -13,-18 c4,0 -22,-30 -57,-66 c-36,-37 -65,-73 -65,-80 c0,-8 -4,-14 -10,-14 c-5,0 -20,-11 -34,-25 c-23,-23 -26,-35 -29,-118 c-1,-50 -4,206 -5,571 l-2,662 l980,0 c539,0 980,-3 980,-7 m-585,-573 c14,-7 8,-8 -20,-3 c-22,3 -42,7 -44,9 c-9,8 45,2 64,-6 m-103,-20 c-41,-25 -66,-81 -57,-126 c7,-41 54,-89 93,-97 c33,-7 86,5 111,25 c10,7 7,3 -6,-9 c-34,-33 -84,-39 -130,-17 c-90,45 -109,147 -39,211 c20,18 41,33 48,33 c7,0 -2,-9 -20,-20 "></path><path d="M584 831 c-39 -24 -46 -34 -51 -80 -6 -50 11 -87 49 -111 43 -26 87 -25 129 3 57 38 64 116 16 173 -31 36 -99 43 -143 15z"></path></g><circle stroke="white" cx="64.499069px" id="circle1" stroke-width="3px" cy="71.251923px" fill="black" r="15.000404px" transform=""></circle><circle stroke="white" cx="135.750992px" stroke-width="3px" id="circle2" cy="71.251923px" fill="black" r="15.000404px" transform=""></circle></svg>