<?xml version="1.0" standalone="yes"?>
<!DOCTYPE svg PUBLIC "-//W3C//DTD SVG 20010904//EN" "http://www.w3.org/TR/2001/REC-SVG-20010904/DTD/svg10.dtd">
<svg xmlns="http://www.w3.org/2000/svg" version="1.0" width="200.000000pt" height="146.000000pt" viewBox="0 0 200.000000 146.000000" preserveAspectRatio="xMidYMid meet" style="zoom: 1;"><g transform="translate(0.000000,146.000000) scale(0.100000,-0.100000)" fill="#000000" stroke="none"><path d="M10,725 l0,-725 l990,0 l990,0 l0,725 l0,725 l-990,0 l-990,0 l0,-725 m1970,708 c0,-5 -147,-7 -327,-5 c-358,4 -656,-5 -647,-19 c2,-5 -10,-25 -28,-45 c-18,-20 -37,-42 -41,-50 c-4,-8 -15,-14 -22,-14 c-8,0 -15,-6 -15,-13 c0,-8 -26,-41 -58,-75 c-31,-33 -75,-81 -97,-108 c-22,-26 -49,-57 -61,-68 c-11,-12 -23,-29 -27,-39 c-4,-10 -11,-16 -16,-13 c-5,4 -12,-7 -16,-24 c-4,-18 -13,-30 -23,-30 c-13,0 -13,-3 4,-16 c18,-14 18,-15 -6,-9 c-19,5 -22,4 -10,-4 c21,-15 50,-14 50,2 c0,9 2,9 8,-1 c5,-7 28,-22 52,-35 c33,-16 51,-34 68,-69 c32,-63 24,-108 -28,-160 c-33,-34 -43,-38 -87,-38 c-42,0 -58,6 -97,35 c-25,20 -46,42 -46,50 c0,7 -5,15 -11,17 c-6,2 -12,16 -12,31 c-2,29 -18,35 -44,15 c-41,-34 -143,-146 -143,-159 c0,-5 -7,-9 -16,-9 c-9,0 -18,-9 -21,-20 c-3,-11 -9,-20 -13,-20 c-5,0 -24,-23 -44,-50 c-20,-28 -41,-48 -46,-45 c-6,3 -10,-1 -10,-9 c0,-8 -11,-23 -25,-34 c-14,-11 -25,-27 -25,-36 c0,-9 -4,-16 -9,-16 c-4,0 -20,-11 -34,-24 c-24,-22 -27,-32 -30,-118 c-1,-51 -4,205 -5,570 l-2,662 l980,0 c539,0 980,-3 980,-7 m-1004,-582 c-62,-22 -91,-58 -91,-114 c0,-54 36,-104 84,-117 c41,-11 75,-5 116,23 l30,21 l-19,-22 c-25,-28 -79,-45 -121,-38 c-42,8 -101,62 -111,100 c-18,72 53,167 124,165 l37,-1 l-49,-17 m397,12 c-7,-2 -21,-2 -30,0 c-10,3 -4,5 12,5 c17,0 24,-2 18,-5 m-81,-23 c-67,-41 -78,-133 -22,-188 c53,-53 137,-48 185,11 c15,18 22,23 16,10 c-30,-60 -108,-86 -168,-57 c-90,45 -109,147 -39,211 c20,18 41,33 48,33 c7,0 -2,-9 -20,-20 m123,10 c3,-6 -1,-7 -9,-4 c-18,7 -21,14 -7,14 c6,0 13,-4 16,-10 m72,-132 c-3,-8 -6,-5 -6,6 c-1,11 2,17 5,13 c3,-3 4,-12 1,-19 m-360,-20 c-3,-8 -6,-5 -6,6 c-1,11 2,17 5,13 c3,-3 4,-12 1,-19 m-1087,-679 c0,-6 -4,-7 -10,-4 c-5,3 -10,11 -10,16 c0,6 5,7 10,4 c6,-3 10,-11 10,-16 "></path><path d="M593 830 c-43 -26 -53 -49 -49 -106 4 -56 34 -89 91 -100 69 -13 125 29 132 98 10 100 -88 161 -174 108z"></path></g><circle stroke="white" transform="" id="circle1" stroke-width="3px" cy="72.003853px" fill="black" r="14.250755px" cx="63.00193px"></circle><circle stroke="white" stroke-width="3px" cy="72.003853px" id="circle2" fill="black" r="14.250755px" transform="" cx="99.753899px"></circle><circle stroke="white" cx="136.505859px" stroke-width="3px" id="circle3" cy="72.003853px" fill="black" r="14.250755px" transform=""></circle></svg>