<?xml version="1.0" standalone="yes"?>
<!DOCTYPE svg PUBLIC "-//W3C//DTD SVG 20010904//EN" "http://www.w3.org/TR/2001/REC-SVG-20010904/DTD/svg10.dtd">
<svg xmlns="http://www.w3.org/2000/svg" version="1.0" width="198.000000pt" height="145.000000pt" viewBox="0 0 198.000000 145.000000" preserveAspectRatio="xMidYMid meet" style="zoom: 1;"><g transform="translate(0.000000,145.000000) scale(0.100000,-0.100000)" fill="#000000" stroke="none"><path d="M0,725 l0,-725 l990,0 l990,0 l0,725 l0,725 l-990,0 l-990,0 l0,-725 m1970,708 c0,-5 -147,-7 -327,-5 c-181,2 -401,0 -489,-3 c-159,-7 -162,-7 -156,-29 c3,-11 2,-18 -2,-15 c-8,8 -50,-32 -66,-61 c-6,-11 -17,-20 -25,-20 c-8,0 -15,-7 -15,-14 c0,-8 -34,-50 -75,-93 c-42,-43 -81,-90 -88,-105 c-6,-16 -19,-28 -27,-29 c-10,0 -11,-2 -2,-6 c6,-2 12,-11 12,-19 c0,-8 5,-14 11,-14 c6,0 8,-7 5,-16 c-3,-8 -2,-13 2,-10 c14,9 42,-62 42,-106 c0,-84 -71,-146 -154,-134 c-22,3 -49,6 -59,7 c-9,0 -15,4 -12,9 c3,6 -1,7 -9,4 c-9,-4 -16,-1 -16,6 c0,9 -7,7 -20,-5 c-18,-17 -20,-17 -14,-2 c4,13 1,17 -15,17 c-13,0 -37,-21 -68,-61 c-26,-34 -72,-86 -100,-115 c-29,-29 -53,-58 -53,-64 c0,-5 -4,-10 -9,-10 c-5,0 -25,-23 -45,-50 c-20,-28 -41,-48 -46,-45 c-6,3 -10,-1 -10,-9 c0,-9 -11,-23 -25,-32 c-14,-9 -25,-22 -25,-29 c0,-7 -16,-27 -35,-43 c-34,-30 -34,-32 -38,-124 c-1,-51 -4,205 -5,570 l-2,662 l980,0 c539,0 980,-3 980,-7 m-607,-420 c-13,-2 -33,-2 -45,0 c-13,2 -3,4 22,4 c25,0 35,-2 23,-4 m-91,-19 c-30,-21 -52,-66 -52,-106 c1,-99 109,-150 196,-93 l39,26 l-33,-31 c-27,-25 -40,-30 -83,-30 c-46,0 -55,4 -90,39 c-35,35 -39,44 -39,89 c0,43 5,57 31,87 c17,19 36,35 42,35 c6,0 1,-7 -11,-16 m-574,-314 c102,-62 91,-205 -19,-250 c-67,-28 -162,28 -179,105 c-12,54 21,132 64,151 c45,19 96,17 134,-6 m691,1 c8,-5 -3,-7 -31,-4 c-79,9 -138,-41 -138,-117 c0,-71 53,-120 131,-120 c33,0 47,6 75,34 c36,36 46,36 16,0 c-78,-93 -232,-38 -232,82 c0,51 17,83 59,111 c35,24 94,30 120,14 "></path><path d="M670 983 c0 -5 -14 -9 -32 -10 -32 -3 -65 -23 -37 -23 7 -1 3 -7 -11 -15 -14 -7 -25 -17 -26 -22 0 -4 -4 -16 -8 -25 -4 -9 -2 -26 4 -37 6 -12 8 -26 5 -31 -3 -6 6 -10 22 -11 24 0 25 -1 8 -8 -16 -7 -11 -10 26 -16 61 -9 105 13 126 62 13 32 13 40 -1 78 -10 26 -26 46 -42 54 -29 13 -34 14 -34 4z"></path><path d="M594 666 c-97 -42 -99 -168 -3 -211 49 -23 97 -14 133 24 57 59 37 155 -39 187 -42 17 -51 17 -91 0z"></path></g><circle stroke="#ffffff" transform="" id="circle1" stroke-width="3px" cy="55.501495px" fill="#000000" r="13.500364px" cx="62.249008px"></circle><circle stroke="#ffffff" stroke-width="3px" cy="88.502396px" id="circle2" fill="#000000" r="13.500364px" cx="62.249012px" transform=""></circle><circle stroke="#ffffff" cx="133.500946px" stroke-width="3px" id="circle3" cy="55.501495px" fill="#000000" r="13.500364px" transform=""></circle><circle stroke="#ffffff" stroke-width="3px" cy="88.50238px" id="circle4" fill="#000000" r="13.500364px" transform="" cx="134.250961px"></circle></svg>