<?xml version="1.0" standalone="yes"?>
<!DOCTYPE svg PUBLIC "-//W3C//DTD SVG 20010904//EN" "http://www.w3.org/TR/2001/REC-SVG-20010904/DTD/svg10.dtd">
<svg xmlns="http://www.w3.org/2000/svg" version="1.0" width="198.000000pt" height="145.000000pt" viewBox="0 0 198.000000 145.000000" preserveAspectRatio="xMidYMid meet" style="zoom: 1;"><g transform="translate(0.000000,145.000000) scale(0.100000,-0.100000)" fill="#000000" stroke="none"><path d="M1085,1440 c-77,-4 -175,-8 -219,-9 c-63,-1 -77,-4 -73,-15 c4,-9 -1,-17 -11,-19 c-11,-3 -8,-5 8,-6 c24,-2 24,-2 7,-16 c-11,-7 -25,-11 -33,-8 c-8,3 -14,2 -13,-3 c4,-15 -13,-44 -21,-39 c-5,3 -17,-6 -28,-20 c-11,-14 -23,-25 -27,-25 c-10,0 -30,-23 -38,-42 c-3,-10 -11,-18 -16,-18 c-5,0 -26,-22 -46,-49 c-20,-28 -45,-53 -55,-56 c-11,-4 -20,-12 -20,-20 c0,-19 -155,-175 -174,-175 c-9,0 -16,-8 -16,-17 c-1,-19 -30,-64 -30,-47 c-1,5 -6,-1 -13,-14 c-7,-13 -31,-42 -54,-65 c-22,-23 -45,-52 -51,-63 c-6,-12 -27,-29 -47,-38 c-19,-9 -35,-19 -35,-22 c0,-3 5,-2 10,1 c6,3 10,1 10,-4 c0,-6 -7,-11 -15,-11 c-8,0 -15,-8 -15,-17 c0,-15 -2,-16 -10,-3 c-6,10 -11,-1 -16,-40 c-5,-30 -10,-47 -12,-38 c-2,10 -7,18 -12,18 c-5,0 -8,-122 -7,-277 l2,-278 l983,-3 l982,-2 l-2,722 l-3,723 l-375,1 c-206,0 -438,-3 -515,-6 m-401,-414 c62,-26 96,-96 82,-171 c-14,-73 -102,-120 -171,-90 c-118,49 -121,209 -4,259 c43,19 52,19 93,2 m251,-25 c-17,-10 -39,-36 -49,-59 c-18,-40 -18,-41 3,-84 c20,-43 61,-76 111,-90 c17,-5 11,-6 -18,-4 c-55,5 -90,29 -109,74 c-23,56 -12,110 31,149 c20,18 41,33 48,33 c7,0 -1,-8 -17,-19 m342,-203 c10,-10 37,-22 59,-27 c33,-8 35,-9 11,-10 c-15,-1 -41,6 -57,14 c-31,16 -70,65 -70,87 c0,7 8,0 19,-17 c10,-16 27,-38 38,-47 m-634,-125 c-7,-2 -19,-2 -25,0 c-7,3 -2,5 12,5 c14,0 19,-2 13,-5 m-87,-44 c-46,-54 -28,-140 37,-179 c43,-26 77,-25 120,4 c20,14 34,19 31,12 c-7,-18 -77,-56 -103,-56 c-78,0 -147,95 -127,173 c7,28 43,77 58,77 c5,0 -2,-14 -16,-31 m179,11 c10,-11 16,-20 13,-20 c-3,0 -13,9 -23,20 c-10,11 -16,20 -13,20 c3,0 13,-9 23,-20 m214,-200 c20,-10 30,-19 22,-20 c-20,0 -80,39 -91,60 c-19,35 -10,45 11,12 c12,-18 38,-41 58,-52 m361,-4 c24,-11 29,-15 15,-16 c-33,0 -95,48 -95,74 c0,6 10,-1 23,-16 c12,-15 38,-34 57,-42 m-245,4 c-3,-5 -12,-10 -18,-10 c-7,0 -6,4 3,10 c19,12 23,12 15,0 "></path><path d="M584 991 c-82 -50 -54 -183 43 -207 62 -16 133 39 133 103 0 96 -96 153 -176 104z"></path></g><circle stroke="#ffffff" transform="" stroke-width="3px" id="circle3" cy="54.751476px" fill="#000000" r="13.500364px" cx="63.749062px"></circle><circle stroke="#ffffff" stroke-width="3px" cy="89.252411px" id="circle1" fill="#000000" r="13.500364px" transform="" cx="63.749069px"></circle><circle stroke="#ffffff" stroke-width="3px" cy="54.751484px" id="circle2" fill="#000000" r="13.500364px" cx="100.500053px" transform=""></circle><circle stroke="#ffffff" cx="100.500061px" stroke-width="3px" id="circle4" cy="90.002441px" fill="#000000" r="13.500364px" transform=""></circle><circle stroke="#ffffff" stroke-width="3px" cy="54.751484px" id="circle5" fill="#000000" r="13.500364px" cx="135.751007px" transform=""></circle><circle stroke="#ffffff" stroke-width="3px" cy="89.252419px" id="circle6" fill="#000000" r="13.500364px" transform="" cx="135.751007px"></circle></svg>