<?xml version="1.0" encoding="UTF-8" standalone="no"?>
<!-- Generator: Adobe Illustrator 21.0.0, SVG Export Plug-In . SVG Version: 6.00 Build 0)  -->

<svg
   version="1.1"
   id="Layer_1"
   x="0px"
   y="0px"
   viewBox="0 0 258.2 258.2"
   style="enable-background:new 0 0 258.2 258.2;"
   xml:space="preserve"
   sodipodi:docname="icon.svg"
   inkscape:version="1.3 (0e150ed, 2023-07-21)"
   xmlns:inkscape="http://www.inkscape.org/namespaces/inkscape"
   xmlns:sodipodi="http://sodipodi.sourceforge.net/DTD/sodipodi-0.dtd"
   xmlns:xlink="http://www.w3.org/1999/xlink"
   xmlns="http://www.w3.org/2000/svg"
   xmlns:svg="http://www.w3.org/2000/svg"><defs
   id="defs12"><linearGradient
     inkscape:collect="always"
     xlink:href="#swatch13"
     id="linearGradient24-7"
     gradientUnits="userSpaceOnUse"
     gradientTransform="translate(20.185558,95.715375)"
     x1="89.893822"
     y1="42.174377"
     x2="133.51462"
     y2="42.174377" /><linearGradient
     id="swatch13"
     inkscape:swatch="solid"><stop
       style="stop-color:#ffffff;stop-opacity:0.3298246;"
       offset="0"
       id="stop13" /></linearGradient><linearGradient
     inkscape:collect="always"
     xlink:href="#swatch12"
     id="linearGradient25-9"
     gradientUnits="userSpaceOnUse"
     gradientTransform="translate(20.185558,95.715375)"
     x1="91.704224"
     y1="42.174381"
     x2="131.70422"
     y2="42.174381" /><linearGradient
     id="swatch12"
     inkscape:swatch="solid"><stop
       style="stop-color:#000000;stop-opacity:1;"
       offset="0"
       id="stop12" /></linearGradient></defs><sodipodi:namedview
   id="namedview12"
   pagecolor="#ffffff"
   bordercolor="#000000"
   borderopacity="0.25"
   inkscape:showpageshadow="2"
   inkscape:pageopacity="0.0"
   inkscape:pagecheckerboard="0"
   inkscape:deskcolor="#d1d1d1"
   inkscape:zoom="2.6607281"
   inkscape:cx="129.1"
   inkscape:cy="129.1"
   inkscape:window-width="1440"
   inkscape:window-height="872"
   inkscape:window-x="0"
   inkscape:window-y="28"
   inkscape:window-maximized="0"
   inkscape:current-layer="Layer_1" />&#10;<style
   type="text/css"
   id="style1">&#10;	.st0{fill:#1A1A18;}&#10;	.st1{fill-rule:evenodd;clip-rule:evenodd;fill:#1A1A18;}&#10;	.st2{fill-rule:evenodd;clip-rule:evenodd;}&#10;</style>&#10;<g
   id="g1">&#10;	<path
   class="st0"
   d="M249.7,251.8H8.5c-1.2,0-2.1-0.9-2.1-2.1V8.5c0-1.2,0.9-2.1,2.1-2.1h241.1c1.2,0,2.1,0.9,2.1,2.1v241.1   C251.8,250.8,250.8,251.8,249.7,251.8z M8.5,7.9c-0.4,0-0.7,0.3-0.7,0.7v241.1c0,0.4,0.3,0.7,0.7,0.7h241.1c0.4,0,0.7-0.3,0.7-0.7   V8.5c0-0.4-0.3-0.7-0.7-0.7H8.5z"
   id="path1" />&#10;</g>&#10;<g
   id="g2">&#10;	<path
   class="st0"
   d="M254,258.2H4.3c-2.3,0-4.3-1.9-4.3-4.3V4.3C0,1.9,1.9,0,4.3,0H254c2.3,0,4.3,1.9,4.3,4.3V254   C258.2,256.3,256.3,258.2,254,258.2z M4.3,2.8c-0.8,0-1.4,0.6-1.4,1.4V254c0,0.8,0.6,1.4,1.4,1.4H254c0.8,0,1.4-0.6,1.4-1.4V4.3   c0-0.8-0.6-1.4-1.4-1.4H4.3z"
   id="path2" />&#10;</g>&#10;&#10;&#10;&#10;&#10;&#10;&#10;&#10;&#10;<g
   id="g11">&#10;	&#10;</g>&#10;&#10;<circle
   style="fill:url(#linearGradient24-7);fill-opacity:0.329825;stroke:url(#linearGradient25-9);stroke-width:3.77953;stroke-linejoin:miter;stroke-dasharray:none"
   id="path12-2-0-0-6-3"
   cx="131.88977"
   cy="137.88977"
   r="20" /></svg>
