<?xml version="1.0" encoding="UTF-8" standalone="no"?>
<!-- Generator: Adobe Illustrator 21.0.0, SVG Export Plug-In . SVG Version: 6.00 Build 0)  -->

<svg
   version="1.1"
   id="Layer_1"
   x="0px"
   y="0px"
   viewBox="0 0 258.2 258.2"
   style="enable-background:new 0 0 258.2 258.2;"
   xml:space="preserve"
   sodipodi:docname="icon.svg"
   inkscape:version="1.3 (0e150ed, 2023-07-21)"
   xmlns:inkscape="http://www.inkscape.org/namespaces/inkscape"
   xmlns:sodipodi="http://sodipodi.sourceforge.net/DTD/sodipodi-0.dtd"
   xmlns="http://www.w3.org/2000/svg"
   xmlns:svg="http://www.w3.org/2000/svg"><defs
   id="defs12" /><sodipodi:namedview
   id="namedview12"
   pagecolor="#ffffff"
   bordercolor="#000000"
   borderopacity="0.25"
   inkscape:showpageshadow="2"
   inkscape:pageopacity="0.0"
   inkscape:pagecheckerboard="0"
   inkscape:deskcolor="#d1d1d1"
   inkscape:zoom="2.1727343"
   inkscape:cx="139.22549"
   inkscape:cy="125.418"
   inkscape:window-width="1440"
   inkscape:window-height="774"
   inkscape:window-x="0"
   inkscape:window-y="25"
   inkscape:window-maximized="0"
   inkscape:current-layer="Layer_1"
   showgrid="false" />&#10;<style
   type="text/css"
   id="style1">&#10;	.st0{fill:#1A1A18;}&#10;	.st1{fill-rule:evenodd;clip-rule:evenodd;fill:#1A1A18;}&#10;	.st2{fill-rule:evenodd;clip-rule:evenodd;}&#10;</style>&#10;<g
   id="g1">&#10;	<path
   class="st0"
   d="M249.7,251.8H8.5c-1.2,0-2.1-0.9-2.1-2.1V8.5c0-1.2,0.9-2.1,2.1-2.1h241.1c1.2,0,2.1,0.9,2.1,2.1v241.1   C251.8,250.8,250.8,251.8,249.7,251.8z M8.5,7.9c-0.4,0-0.7,0.3-0.7,0.7v241.1c0,0.4,0.3,0.7,0.7,0.7h241.1c0.4,0,0.7-0.3,0.7-0.7   V8.5c0-0.4-0.3-0.7-0.7-0.7H8.5z"
   id="path1" />&#10;</g>&#10;<g
   id="g2">&#10;	<path
   class="st0"
   d="M254,258.2H4.3c-2.3,0-4.3-1.9-4.3-4.3V4.3C0,1.9,1.9,0,4.3,0H254c2.3,0,4.3,1.9,4.3,4.3V254   C258.2,256.3,256.3,258.2,254,258.2z M4.3,2.8c-0.8,0-1.4,0.6-1.4,1.4V254c0,0.8,0.6,1.4,1.4,1.4H254c0.8,0,1.4-0.6,1.4-1.4V4.3   c0-0.8-0.6-1.4-1.4-1.4H4.3z"
   id="path2" />&#10;</g>&#10;<g
   id="g3"
   transform="translate(-54.309448,32.217468)">&#10;	<path
   class="st0"
   d="m 134.6,71.2 c 4.3,1 8.2,3.2 11.2,6.3 4.3,4.3 6.9,10.2 6.9,16.7 0,6.5 -2.6,12.4 -6.9,16.7 -4.3,4.3 -10.2,6.9 -16.7,6.9 -6.5,0 -12.4,-2.6 -16.7,-6.9 -4.3,-4.3 -6.9,-10.2 -6.9,-16.7 0,-6.5 2.6,-12.4 6.9,-16.7 3.1,-3.1 6.9,-5.3 11.3,-6.3 l 0.4,2.8 c -3.7,0.9 -7.1,2.9 -9.7,5.5 -3.8,3.8 -6.1,9 -6.1,14.7 0,5.7 2.3,10.9 6.1,14.7 3.8,3.8 9,6.1 14.7,6.1 5.7,0 10.9,-2.3 14.7,-6.1 3.8,-3.8 6.1,-9 6.1,-14.7 0,-5.7 -2.3,-10.9 -6.1,-14.7 -2.6,-2.6 -6,-4.6 -9.8,-5.5 z"
   id="path3" />&#10;</g>&#10;<g
   id="g4"
   transform="translate(46.945455,-40.501961)">&#10;	<path
   class="st0"
   d="m 139,145 c 2.6,1.2 4.9,2.8 6.8,4.8 4.3,4.3 6.9,10.2 6.9,16.7 0,6.5 -2.6,12.4 -6.9,16.7 -4.3,4.3 -10.2,6.9 -16.7,6.9 -6.5,0 -12.4,-2.6 -16.7,-6.9 -4.3,-4.3 -6.9,-10.2 -6.9,-16.7 0,-6.5 2.6,-12.4 6.9,-16.7 1.9,-1.9 4.2,-3.5 6.7,-4.7 l 1.1,2.6 c -2.1,1 -4.1,2.4 -5.8,4.1 -3.8,3.8 -6.1,9 -6.1,14.7 0,5.7 2.3,10.9 6.1,14.7 3.8,3.8 9,6.1 14.7,6.1 5.7,0 10.9,-2.3 14.7,-6.1 3.8,-3.8 6.1,-9 6.1,-14.7 0,-5.7 -2.3,-10.9 -6.1,-14.7 -1.7,-1.7 -3.7,-3.1 -6,-4.2 z"
   id="path4" />&#10;</g>&#10;<g
   id="g5"
   transform="translate(-54.309448,32.217468)">&#10;	<path
   class="st1"
   d="m 129.1,68.6 c 1.9,0 3.4,1.5 3.4,3.4 0,1.9 -1.5,3.4 -3.4,3.4 -1.9,0 -3.4,-1.5 -3.4,-3.4 0,-1.9 1.5,-3.4 3.4,-3.4"
   id="path5" />&#10;</g>&#10;<g
   id="g6"
   transform="translate(46.945455,-40.501961)">&#10;	<path
   class="st1"
   d="m 133.7,141.4 c 1.9,0 3.4,1.5 3.4,3.4 0,1.9 -1.5,3.4 -3.4,3.4 -1.9,0 -3.4,-1.5 -3.4,-3.4 -0.1,-1.8 1.5,-3.4 3.4,-3.4"
   id="path6" />&#10;</g>&#10;<g
   id="g7"
   transform="translate(46.945455,-40.501961)">&#10;	<path
   class="st1"
   d="m 124.5,141.3 c 1.9,0 3.4,1.5 3.4,3.4 0,1.9 -1.5,3.4 -3.4,3.4 -1.9,0 -3.4,-1.5 -3.4,-3.4 0,-1.8 1.5,-3.4 3.4,-3.4"
   id="path7" />&#10;</g>&#10;&#10;&#10;&#10;<g
   id="g11">&#10;	&#10;</g>&#10;&#10;</svg>
