<?xml version="1.0" encoding="UTF-8" standalone="no"?>
<!-- Generator: Adobe Illustrator 21.0.0, SVG Export Plug-In . SVG Version: 6.00 Build 0)  -->

<svg
   version="1.1"
   id="Layer_1"
   x="0px"
   y="0px"
   viewBox="0 0 258.2 258.2"
   style="enable-background:new 0 0 258.2 258.2;"
   xml:space="preserve"
   sodipodi:docname="icon.svg"
   inkscape:version="1.3 (0e150ed, 2023-07-21)"
   xmlns:inkscape="http://www.inkscape.org/namespaces/inkscape"
   xmlns:sodipodi="http://sodipodi.sourceforge.net/DTD/sodipodi-0.dtd"
   xmlns:xlink="http://www.w3.org/1999/xlink"
   xmlns="http://www.w3.org/2000/svg"
   xmlns:svg="http://www.w3.org/2000/svg"><defs
   id="defs16"><linearGradient
     inkscape:collect="always"
     xlink:href="#swatch13"
     id="linearGradient24-7"
     gradientUnits="userSpaceOnUse"
     gradientTransform="translate(16.581489,85.715378)"
     x1="89.893822"
     y1="42.174377"
     x2="133.51462"
     y2="42.174377" /><linearGradient
     id="swatch13"
     inkscape:swatch="solid"><stop
       style="stop-color:#ffffff;stop-opacity:0.3298246;"
       offset="0"
       id="stop13" /></linearGradient><linearGradient
     inkscape:collect="always"
     xlink:href="#swatch12"
     id="linearGradient25-9"
     gradientUnits="userSpaceOnUse"
     gradientTransform="translate(16.581489,85.715378)"
     x1="91.704224"
     y1="42.174381"
     x2="131.70422"
     y2="42.174381" /><linearGradient
     id="swatch12"
     inkscape:swatch="solid"><stop
       style="stop-color:#000000;stop-opacity:1;"
       offset="0"
       id="stop12" /></linearGradient><linearGradient
     inkscape:collect="always"
     xlink:href="#swatch13"
     id="linearGradient24-7-9"
     gradientUnits="userSpaceOnUse"
     gradientTransform="translate(-58.740203,85.715383)"
     x1="89.893822"
     y1="42.174377"
     x2="133.51462"
     y2="42.174377" /><linearGradient
     inkscape:collect="always"
     xlink:href="#swatch12"
     id="linearGradient25-9-6"
     gradientUnits="userSpaceOnUse"
     gradientTransform="translate(-58.740203,85.715383)"
     x1="91.704224"
     y1="42.174381"
     x2="131.70422"
     y2="42.174381" /><linearGradient
     inkscape:collect="always"
     xlink:href="#swatch13"
     id="linearGradient24-7-1"
     gradientUnits="userSpaceOnUse"
     gradientTransform="translate(89.930254,85.715371)"
     x1="89.893822"
     y1="42.174377"
     x2="133.51462"
     y2="42.174377" /><linearGradient
     inkscape:collect="always"
     xlink:href="#swatch12"
     id="linearGradient25-9-4"
     gradientUnits="userSpaceOnUse"
     gradientTransform="translate(89.930254,85.715371)"
     x1="91.704224"
     y1="42.174381"
     x2="131.70422"
     y2="42.174381" /></defs><sodipodi:namedview
   id="namedview16"
   pagecolor="#ffffff"
   bordercolor="#000000"
   borderopacity="0.25"
   inkscape:showpageshadow="2"
   inkscape:pageopacity="0.0"
   inkscape:pagecheckerboard="0"
   inkscape:deskcolor="#d1d1d1"
   showgrid="false"
   inkscape:zoom="2.660728"
   inkscape:cx="138.12009"
   inkscape:cy="132.1067"
   inkscape:window-width="1440"
   inkscape:window-height="872"
   inkscape:window-x="0"
   inkscape:window-y="28"
   inkscape:window-maximized="0"
   inkscape:current-layer="g16" />&#10;<g
   id="g16">&#10;	<path
   d="M249.7,6.4H8.5c-1.2,0-2.1,0.9-2.1,2.1v241.1c0,1.2,0.9,2.1,2.1,2.1h241.1c1.2,0,2.1-0.9,2.1-2.1V8.5   C251.8,7.4,250.8,6.4,249.7,6.4z M250.4,249.7c0,0.4-0.3,0.7-0.7,0.7H8.5c-0.4,0-0.7-0.3-0.7-0.7V8.5c0-0.4,0.3-0.7,0.7-0.7h241.1   c0.4,0,0.7,0.3,0.7,0.7V249.7z"
   id="path1" />&#10;	<path
   d="M254,0H4.3C1.9,0,0,1.9,0,4.3V254c0,2.3,1.9,4.3,4.3,4.3H254c2.3,0,4.3-1.9,4.3-4.3V4.3C258.2,1.9,256.3,0,254,0z    M255.4,254c0,0.8-0.6,1.4-1.4,1.4H4.3c-0.8,0-1.4-0.6-1.4-1.4V4.3c0-0.8,0.6-1.4,1.4-1.4H254c0.8,0,1.4,0.6,1.4,1.4V254z"
   id="path2" />&#10;	&#10;	&#10;	&#10;	&#10;	&#10;	&#10;	&#10;	&#10;	&#10;	&#10;	&#10;	&#10;	&#10;	&#10;	&#10;	&#10;	&#10;	&#10;	&#10;	&#10;	&#10;	&#10;<circle
   style="fill:url(#linearGradient24-7);fill-opacity:0.329825;stroke:url(#linearGradient25-9);stroke-width:3.77953;stroke-linejoin:miter;stroke-dasharray:none"
   id="path12-2-0-0-6-3"
   cx="128.28569"
   cy="127.88976"
   r="20" /><circle
   style="fill:url(#linearGradient24-7-9);fill-opacity:0.329825;stroke:url(#linearGradient25-9-6);stroke-width:3.77953;stroke-linejoin:miter;stroke-dasharray:none"
   id="path12-2-0-0-6-3-0"
   cx="52.963997"
   cy="127.88976"
   r="20" /><circle
   style="fill:url(#linearGradient24-7-1);fill-opacity:0.329825;stroke:url(#linearGradient25-9-4);stroke-width:3.77953;stroke-linejoin:miter;stroke-dasharray:none"
   id="path12-2-0-0-6-3-8"
   cx="201.63445"
   cy="127.88976"
   r="20" /></g>&#10;</svg>
