<?xml version="1.0" encoding="UTF-8" standalone="no"?>
<!-- Generator: Adobe Illustrator 21.0.0, SVG Export Plug-In . SVG Version: 6.00 Build 0)  -->

<svg
   version="1.1"
   id="Layer_1"
   x="0px"
   y="0px"
   viewBox="0 0 258.2 258.2"
   style="enable-background:new 0 0 258.2 258.2;"
   xml:space="preserve"
   sodipodi:docname="icon.svg"
   inkscape:version="1.3 (0e150ed, 2023-07-21)"
   xmlns:inkscape="http://www.inkscape.org/namespaces/inkscape"
   xmlns:sodipodi="http://sodipodi.sourceforge.net/DTD/sodipodi-0.dtd"
   xmlns:xlink="http://www.w3.org/1999/xlink"
   xmlns="http://www.w3.org/2000/svg"
   xmlns:svg="http://www.w3.org/2000/svg"><defs
   id="defs16"><linearGradient
     id="swatch13"
     inkscape:swatch="solid"><stop
       style="stop-color:#ffffff;stop-opacity:0.3298246;"
       offset="0"
       id="stop13" /></linearGradient><linearGradient
     id="swatch12"
     inkscape:swatch="solid"><stop
       style="stop-color:#000000;stop-opacity:1;"
       offset="0"
       id="stop12" /></linearGradient><inkscape:perspective
     sodipodi:type="inkscape:persp3d"
     inkscape:vp_x="0 : 129.1 : 1"
     inkscape:vp_y="0 : 1000 : 0"
     inkscape:vp_z="258.2 : 129.1 : 1"
     inkscape:persp3d-origin="129.1 : 86.066667 : 1"
     id="perspective4" /><linearGradient
     inkscape:collect="always"
     xlink:href="#swatch13"
     id="linearGradient19"
     gradientUnits="userSpaceOnUse"
     gradientTransform="translate(15.916847,54.68191)"
     x1="89.893825"
     y1="42.174376"
     x2="133.51462"
     y2="42.174376" /><linearGradient
     inkscape:collect="always"
     xlink:href="#swatch12"
     id="linearGradient20"
     gradientUnits="userSpaceOnUse"
     gradientTransform="translate(15.916847,54.68191)"
     x1="91.704224"
     y1="42.174381"
     x2="131.70422"
     y2="42.174381" /><linearGradient
     inkscape:collect="always"
     xlink:href="#swatch13"
     id="linearGradient22"
     gradientUnits="userSpaceOnUse"
     gradientTransform="translate(90.809728,54.842901)"
     x1="89.893825"
     y1="42.174376"
     x2="133.51462"
     y2="42.174376" /><linearGradient
     inkscape:collect="always"
     xlink:href="#swatch12"
     id="linearGradient23"
     gradientUnits="userSpaceOnUse"
     gradientTransform="translate(90.809728,54.842901)"
     x1="91.704224"
     y1="42.174381"
     x2="131.70422"
     y2="42.174381" /><linearGradient
     inkscape:collect="always"
     xlink:href="#swatch13"
     id="linearGradient24"
     gradientUnits="userSpaceOnUse"
     gradientTransform="translate(-59.41794,55.165459)"
     x1="89.893825"
     y1="42.174376"
     x2="133.51462"
     y2="42.174376" /><linearGradient
     inkscape:collect="always"
     xlink:href="#swatch12"
     id="linearGradient25"
     gradientUnits="userSpaceOnUse"
     gradientTransform="translate(-59.41794,55.165459)"
     x1="91.704224"
     y1="42.174381"
     x2="131.70422"
     y2="42.174381" /><linearGradient
     inkscape:collect="always"
     xlink:href="#swatch13"
     id="linearGradient26"
     gradientUnits="userSpaceOnUse"
     gradientTransform="translate(15.52036,108.71539)"
     x1="89.893825"
     y1="42.174376"
     x2="133.51462"
     y2="42.174376" /><linearGradient
     inkscape:collect="always"
     xlink:href="#swatch12"
     id="linearGradient27"
     gradientUnits="userSpaceOnUse"
     gradientTransform="translate(15.52036,108.71539)"
     x1="91.704224"
     y1="42.174381"
     x2="131.70422"
     y2="42.174381" /><linearGradient
     inkscape:collect="always"
     xlink:href="#swatch13"
     id="linearGradient28"
     gradientUnits="userSpaceOnUse"
     gradientTransform="translate(90.41324,108.87638)"
     x1="89.893825"
     y1="42.174376"
     x2="133.51462"
     y2="42.174376" /><linearGradient
     inkscape:collect="always"
     xlink:href="#swatch12"
     id="linearGradient29"
     gradientUnits="userSpaceOnUse"
     gradientTransform="translate(90.41324,108.87638)"
     x1="91.704224"
     y1="42.174381"
     x2="131.70422"
     y2="42.174381" /><linearGradient
     inkscape:collect="always"
     xlink:href="#swatch13"
     id="linearGradient30"
     gradientUnits="userSpaceOnUse"
     gradientTransform="translate(-59.81443,109.19894)"
     x1="89.893825"
     y1="42.174376"
     x2="133.51462"
     y2="42.174376" /><linearGradient
     inkscape:collect="always"
     xlink:href="#swatch12"
     id="linearGradient31"
     gradientUnits="userSpaceOnUse"
     gradientTransform="translate(-59.81443,109.19894)"
     x1="91.704224"
     y1="42.174381"
     x2="131.70422"
     y2="42.174381" /></defs><sodipodi:namedview
   id="namedview16"
   pagecolor="#ffffff"
   bordercolor="#000000"
   borderopacity="0.25"
   inkscape:showpageshadow="2"
   inkscape:pageopacity="0.0"
   inkscape:pagecheckerboard="0"
   inkscape:deskcolor="#d1d1d1"
   showgrid="false"
   inkscape:zoom="2.660728"
   inkscape:cx="118.76449"
   inkscape:cy="129.85168"
   inkscape:window-width="1440"
   inkscape:window-height="900"
   inkscape:window-x="0"
   inkscape:window-y="0"
   inkscape:window-maximized="0"
   inkscape:current-layer="g16" />&#10;<g
   id="g16">&#10;	<path
   d="M249.7,6.4H8.5c-1.2,0-2.1,0.9-2.1,2.1v241.1c0,1.2,0.9,2.1,2.1,2.1h241.1c1.2,0,2.1-0.9,2.1-2.1V8.5   C251.8,7.4,250.8,6.4,249.7,6.4z M250.4,249.7c0,0.4-0.3,0.7-0.7,0.7H8.5c-0.4,0-0.7-0.3-0.7-0.7V8.5c0-0.4,0.3-0.7,0.7-0.7h241.1   c0.4,0,0.7,0.3,0.7,0.7V249.7z"
   id="path1" />&#10;	<path
   d="M254,0H4.3C1.9,0,0,1.9,0,4.3V254c0,2.3,1.9,4.3,4.3,4.3H254c2.3,0,4.3-1.9,4.3-4.3V4.3C258.2,1.9,256.3,0,254,0z    M255.4,254c0,0.8-0.6,1.4-1.4,1.4H4.3c-0.8,0-1.4-0.6-1.4-1.4V4.3c0-0.8,0.6-1.4,1.4-1.4H254c0.8,0,1.4,0.6,1.4,1.4V254z"
   id="path2" />&#10;	&#10;	&#10;	&#10;	&#10;	&#10;	&#10;	&#10;	&#10;	&#10;	&#10;	&#10;	&#10;	&#10;	&#10;	&#10;	&#10;	&#10;	&#10;	&#10;	&#10;	&#10;	&#10;<circle
   style="fill:url(#linearGradient19);fill-opacity:0.329825;stroke:url(#linearGradient20);stroke-width:3.77953;stroke-linejoin:miter;stroke-dasharray:none"
   id="path12-2-0"
   cx="127.62105"
   cy="96.856285"
   r="20" /><circle
   style="fill:url(#linearGradient22);fill-opacity:0.329825;stroke:url(#linearGradient23);stroke-width:3.77953;stroke-linejoin:miter;stroke-dasharray:none"
   id="path12-2-0-0"
   cx="202.51393"
   cy="97.017273"
   r="20" /><circle
   style="fill:url(#linearGradient24);fill-opacity:0.329825;stroke:url(#linearGradient25);stroke-width:3.77953;stroke-linejoin:miter;stroke-dasharray:none"
   id="path12-2-0-0-6"
   cx="52.286259"
   cy="97.339836"
   r="20" /><circle
   style="fill:url(#linearGradient26);fill-opacity:0.329825;stroke:url(#linearGradient27);stroke-width:3.77953;stroke-linejoin:miter;stroke-dasharray:none"
   id="path12-2-0-5"
   cx="127.22456"
   cy="150.88977"
   r="20" /><circle
   style="fill:url(#linearGradient28);fill-opacity:0.329825;stroke:url(#linearGradient29);stroke-width:3.77953;stroke-linejoin:miter;stroke-dasharray:none"
   id="path12-2-0-0-3"
   cx="202.11743"
   cy="151.05075"
   r="20" /><circle
   style="fill:url(#linearGradient30);fill-opacity:0.329825;stroke:url(#linearGradient31);stroke-width:3.77953;stroke-linejoin:miter;stroke-dasharray:none"
   id="path12-2-0-0-6-7"
   cx="51.889771"
   cy="151.37332"
   r="20" /></g>&#10;</svg>
