<?xml version="1.0" encoding="UTF-8" standalone="no"?>
<!-- Generator: Adobe Illustrator 21.0.0, SVG Export Plug-In . SVG Version: 6.00 Build 0)  -->

<svg
   version="1.1"
   id="Layer_1"
   x="0px"
   y="0px"
   viewBox="0 0 258.2 258.2"
   style="enable-background:new 0 0 258.2 258.2;"
   xml:space="preserve"
   sodipodi:docname="icon.svg"
   inkscape:version="1.3.2 (091e20e, 2023-11-25, custom)"
   xmlns:inkscape="http://www.inkscape.org/namespaces/inkscape"
   xmlns:sodipodi="http://sodipodi.sourceforge.net/DTD/sodipodi-0.dtd"
   xmlns:xlink="http://www.w3.org/1999/xlink"
   xmlns="http://www.w3.org/2000/svg"
   xmlns:svg="http://www.w3.org/2000/svg"><defs
   id="defs12"><linearGradient
     inkscape:collect="always"
     xlink:href="#swatch13"
     id="linearGradient24-7"
     gradientUnits="userSpaceOnUse"
     gradientTransform="translate(-30.814435,83.715381)"
     x1="89.893822"
     y1="42.174377"
     x2="133.51462"
     y2="42.174377" /><linearGradient
     id="swatch13"
     inkscape:swatch="solid"><stop
       style="stop-color:#ffffff;stop-opacity:0.3298246;"
       offset="0"
       id="stop13" /></linearGradient><linearGradient
     inkscape:collect="always"
     xlink:href="#swatch12"
     id="linearGradient25-9"
     gradientUnits="userSpaceOnUse"
     gradientTransform="translate(-30.814435,83.715381)"
     x1="91.704224"
     y1="42.174381"
     x2="131.70422"
     y2="42.174381" /><linearGradient
     id="swatch12"
     inkscape:swatch="solid"><stop
       style="stop-color:#000000;stop-opacity:1;"
       offset="0"
       id="stop12" /></linearGradient><linearGradient
     inkscape:collect="always"
     xlink:href="#swatch13"
     id="linearGradient1"
     gradientUnits="userSpaceOnUse"
     gradientTransform="translate(71.185565,83.715371)"
     x1="89.893822"
     y1="42.174377"
     x2="133.51462"
     y2="42.174377" /><linearGradient
     inkscape:collect="always"
     xlink:href="#swatch12"
     id="linearGradient2"
     gradientUnits="userSpaceOnUse"
     gradientTransform="translate(71.185565,83.715371)"
     x1="91.704224"
     y1="42.174381"
     x2="131.70422"
     y2="42.174381" /></defs><sodipodi:namedview
   id="namedview12"
   pagecolor="#ffffff"
   bordercolor="#000000"
   borderopacity="0.25"
   inkscape:showpageshadow="2"
   inkscape:pageopacity="0.0"
   inkscape:pagecheckerboard="0"
   inkscape:deskcolor="#d1d1d1"
   inkscape:zoom="2.1727343"
   inkscape:cx="138.99537"
   inkscape:cy="125.418"
   inkscape:window-width="2130"
   inkscape:window-height="1160"
   inkscape:window-x="845"
   inkscape:window-y="528"
   inkscape:window-maximized="0"
   inkscape:current-layer="Layer_1"
   showgrid="false" />
<style
   type="text/css"
   id="style1">
	.st0{fill:#1A1A18;}
	.st1{fill-rule:evenodd;clip-rule:evenodd;fill:#1A1A18;}
	.st2{fill-rule:evenodd;clip-rule:evenodd;}
</style>
<g
   id="g1">
	<path
   class="st0"
   d="M249.7,251.8H8.5c-1.2,0-2.1-0.9-2.1-2.1V8.5c0-1.2,0.9-2.1,2.1-2.1h241.1c1.2,0,2.1,0.9,2.1,2.1v241.1   C251.8,250.8,250.8,251.8,249.7,251.8z M8.5,7.9c-0.4,0-0.7,0.3-0.7,0.7v241.1c0,0.4,0.3,0.7,0.7,0.7h241.1c0.4,0,0.7-0.3,0.7-0.7   V8.5c0-0.4-0.3-0.7-0.7-0.7H8.5z"
   id="path1" />
</g>
<g
   id="g2">
	<path
   class="st0"
   d="M254,258.2H4.3c-2.3,0-4.3-1.9-4.3-4.3V4.3C0,1.9,1.9,0,4.3,0H254c2.3,0,4.3,1.9,4.3,4.3V254   C258.2,256.3,256.3,258.2,254,258.2z M4.3,2.8c-0.8,0-1.4,0.6-1.4,1.4V254c0,0.8,0.6,1.4,1.4,1.4H254c0.8,0,1.4-0.6,1.4-1.4V4.3   c0-0.8-0.6-1.4-1.4-1.4H4.3z"
   id="path2" />
</g>








<g
   id="g11">
	
</g>

<circle
   style="fill:url(#linearGradient24-7);fill-opacity:0.329825;stroke:url(#linearGradient25-9);stroke-width:3.77953;stroke-linejoin:miter;stroke-dasharray:none"
   id="path12-2-0-0-6-3"
   cx="80.889763"
   cy="125.88976"
   r="20" /><circle
   style="fill:url(#linearGradient1);fill-opacity:0.329825;stroke:url(#linearGradient2);stroke-width:3.77953;stroke-linejoin:miter;stroke-dasharray:none"
   id="path12-2-0-0-6-3-2"
   cx="182.88979"
   cy="125.88976"
   r="20" /><path
   sodipodi:type="star"
   style="fill:#ffffff;fill-opacity:1;stroke:#000000;stroke-width:3;stroke-dasharray:none;stroke-opacity:1"
   id="path3"
   inkscape:flatsided="false"
   sodipodi:sides="3"
   sodipodi:cx="81.003922"
   sodipodi:cy="107.6984"
   sodipodi:r1="18.155081"
   sodipodi:r2="8.7735729"
   sodipodi:arg1="0.53172407"
   sodipodi:arg2="1.5789216"
   inkscape:rounded="0"
   inkscape:randomized="0"
   d="m 96.652407,116.90339 -15.719772,-0.4317 -15.724713,0.1762 8.233757,-13.39787 7.709756,-13.706099 7.486016,13.829579 z"
   inkscape:transform-center-x="0.061915326"
   inkscape:transform-center-y="-3.6291959"
   transform="matrix(0.83945894,0,0,0.81103965,12.760465,39.841694)" /><path
   sodipodi:type="star"
   style="fill:#ffffff;fill-opacity:1;stroke:#000000;stroke-width:3;stroke-dasharray:none;stroke-opacity:1"
   id="path3-7"
   inkscape:flatsided="false"
   sodipodi:sides="3"
   sodipodi:cx="81.003922"
   sodipodi:cy="107.6984"
   sodipodi:r1="18.155081"
   sodipodi:r2="8.7735729"
   sodipodi:arg1="0.53172407"
   sodipodi:arg2="1.5789216"
   inkscape:rounded="0"
   inkscape:randomized="0"
   d="m 96.652407,116.90339 -15.719772,-0.4317 -15.724713,0.1762 8.233757,-13.39787 7.709756,-13.706099 7.486016,13.829579 z"
   inkscape:transform-center-x="0.061992986"
   inkscape:transform-center-y="3.5674967"
   transform="matrix(0.84052239,0,0,-0.79725064,115.28697,210.77336)" /></svg>
